# xmcd
#
# Track frame offsets: 
#        150
#        3316
#        21917
#        33927
#        50571
#        74818
#        97868
#        125586
#        140089
#        153956
#        166003
#        187517
#        220717
#        241536
#
# Disc length: 3576 seconds
#
# Revision: 1
# Processed by: cddbd v1.5.2PL0 Copyright (c) Steve Scherf et al.
# Submitted via: ExactAudioCopy v0.99pb5
#
DISCID=ac0df60e
DTITLE=SPEED CARAVAN - Kalashnik Love
DYEAR=2008
DGENRE=World
TTITLE0=TAQ ON THE BEAT
TTITLE1=KALASHNIK LOVE
TTITLE2=KILLING AN ARAB
TTITLE3=QAT MARKET
TTITLE4=DUBAI
TTITLE5=GALVANIZE
TTITLE6=EROTIC CHIFTETELLI
TTITLE7=PAROV YEGAR SIROON VAR
TTITLE8=IDEMO DALJE
TTITLE9=DADDY LOLO
TTITLE10=HOTEL ZYANNIDES
TTITLE11=AISSA WAH
TTITLE12=DADDY LOLO REMIX(SIDESTEPPER)
TTITLE13=AISSA WAH REMIX(MO DJ)
EXTD=
EXTT0=
EXTT1=
EXTT2=
EXTT3=
EXTT4=
EXTT5=
EXTT6=
EXTT7=
EXTT8=
EXTT9=
EXTT10=
EXTT11=
EXTT12=
EXTT13=
PLAYORDER=
